<?xml version="1.0" encoding="UTF-8"?>
<svg xmlns="http://www.w3.org/2000/svg" xmlns:v="https://vecta.io/nano" width="295" height="98" fill="none">
  <path fill="#fff" d="M0 0h294.294v98H0z"></path>
  <path d="M261.129 41.349a2.03 2.03 0 0 1-4.106 0 2.03 2.03 0 0 1 4.106 0zm-6.117-6.137a2.03 2.03 0 0 1-4.106 0 2.03 2.03 0 0 1 2.053-2.046c1.15 0 2.053.941 2.053 2.046zm6.117 0a2.03 2.03 0 0 1-4.106 0 2.03 2.03 0 0 1 2.053-2.046c1.15 0 2.053.941 2.053 2.046zm-12.275 0a2.03 2.03 0 1 1-4.106 0 2.03 2.03 0 0 1 2.053-2.046c1.15 0 2.053.941 2.053 2.046zm15.764-6.547c.78.777.78 2.087 0 2.905-.78.777-2.093.777-2.873 0s-.78-2.087 0-2.905c.78-.777 2.052-.777 2.873 0zm5.091-4.051c.78.777.78 2.087 0 2.905-.78.777-2.094.777-2.874 0s-.78-2.087 0-2.905a1.99 1.99 0 0 1 2.874 0zM241.71 35.211c0 1.146-.903 2.046-2.052 2.046a2.03 2.03 0 1 1 0-4.092c1.149 0 2.052.941 2.052 2.046zm-6.117 0a2.03 2.03 0 0 1-2.053 2.046c-1.149 0-2.052-.9-2.052-2.046s.903-2.046 2.052-2.046 2.053.941 2.053 2.046zm23.483 10.229c1.109 0 2.053.9 2.053 2.046a2.03 2.03 0 0 1-4.106 0c0-1.146.945-2.046 2.053-2.046zM236.62 65.817a2.03 2.03 0 0 1-4.106 0 2.03 2.03 0 0 1 2.053-2.046c1.149.041 2.053.941 2.053 2.046zm-6.118-6.097c0 1.146-.903 2.046-2.052 2.046a2.03 2.03 0 1 1 0-4.092c1.149 0 2.052.9 2.052 2.046zm6.118 0a2.03 2.03 0 0 1-4.106 0 2.03 2.03 0 0 1 4.106 0zm-12.235 0c0 1.146-.903 2.046-2.052 2.046a2.03 2.03 0 1 1 0-4.092c1.149 0 2.052.9 2.052 2.046zm10.182 10.188c1.108 0 2.053.9 2.053 2.046a2.03 2.03 0 0 1-4.106 0c.041-1.105.944-2.046 2.053-2.046zm24.509-18.371c1.109 0 2.053.9 2.053 2.046a2.03 2.03 0 0 1-4.106 0c0-1.146.945-2.046 2.053-2.046zm0 7.16c1.109 0 2.053.9 2.053 2.046a2.03 2.03 0 0 1-4.106 0c0-1.146.945-2.046 2.053-2.046zm-13.26-8.183a2.03 2.03 0 0 1-4.106 0 2.03 2.03 0 0 1 2.053-2.046c1.149.041 2.053.941 2.053 2.046zm3.489-6.547c.78.777.78 2.087 0 2.905-.78.777-2.093.777-2.874 0s-.78-2.087 0-2.905c.781-.777 2.053-.777 2.874 0zm5.091-4.051c.78.777.78 2.087 0 2.905-.78.777-2.094.777-2.874 0s-.78-2.087 0-2.905a1.99 1.99 0 0 1 2.874 0zm-13.26 13.257c.78.777.78 2.087 0 2.905-.781.777-2.094.777-2.874 0s-.78-2.087 0-2.905 2.052-.818 2.874 0zm-80.754 14.771C155.62 71.954 150.036 74 143.632 74c-6.897 0-12.85-2.414-17.859-7.201-4.967-4.869-7.472-10.761-7.472-17.717s2.505-12.848 7.472-17.717c5.009-4.91 10.962-7.365 17.859-7.365 4.064 0 7.636.655 10.756 2.005 3.079 1.309 6.199 3.519 9.319 6.629l.247.245-4.804 5.196-.287-.245c-3.079-2.537-5.419-4.255-7.102-5.155-2.464-1.309-5.173-1.923-8.129-1.923-5.132 0-9.361 1.8-12.768 5.36s-5.132 7.897-5.132 12.93 1.724 9.288 5.132 12.889c3.407 3.56 7.677 5.36 12.768 5.36 4.721 0 8.744-1.35 11.988-4.092 3.407-2.823 5.131-6.424 5.214-10.843h-16.71v-6.71h24.222v4.419c.042 7.447-2.627 13.38-7.964 17.881zm41.67 1.023c-3.408 3.273-7.513 4.91-12.275 4.91s-8.827-1.637-12.234-4.91-5.132-7.447-5.132-12.439 1.683-9.124 5.049-12.357c3.408-3.314 7.513-4.951 12.276-4.951s8.826 1.637 12.234 4.951c3.489 3.273 5.214 7.406 5.214 12.357s-1.684 9.165-5.132 12.439zm-4.844-20.335c-1.93-2.005-4.393-3.028-7.431-3.028s-5.543 1.023-7.513 3.028c-1.889 1.964-2.833 4.583-2.833 7.897s.985 5.851 2.915 7.897c1.929 2.005 4.393 3.028 7.431 3.028s5.501-1.023 7.431-3.028 2.914-4.623 2.914-7.897c0-3.232-.985-5.851-2.914-7.897zm-83.997-12.93c-.698.777-1.684 1.146-2.956 1.146-1.191 0-2.176-.368-2.956-1.146a4.27 4.27 0 0 1-1.068-2.864c0-1.105.37-2.046 1.068-2.782.739-.777 1.724-1.146 2.956-1.146s2.176.409 2.874 1.227c.739.736 1.149 1.678 1.149 2.701 0 1.146-.328 2.128-1.067 2.864zm-6.364 37.48V39.876h6.815v33.306h-6.815zm-9.442-4.378c-3.161 3.355-7.226 5.033-12.152 5.033-5.214 0-9.483-1.8-12.727-5.401-3.038-3.396-4.557-7.651-4.557-12.766 0-4.624 1.56-8.511 4.721-11.702 3.202-3.232 6.979-4.828 11.413-4.828 3.49 0 6.651.777 9.483 2.291l.205.123v7.242l-.575-.409c-1.108-.736-2.463-1.391-3.982-1.964-1.478-.573-2.833-.859-4.064-.859-3.161 0-5.665.982-7.554 2.946s-2.833 4.583-2.833 7.897.985 5.892 2.915 7.938c1.971 2.005 4.516 3.028 7.636 3.028 2.915 0 5.296-1.105 7.226-3.273s2.915-5.401 2.915-9.656V24.777h6.733v30.728c0 5.483-1.601 9.902-4.803 13.298zM57.09 73.182V53.787c0-2.373-.739-4.296-2.217-5.81-1.437-1.555-3.202-2.332-5.378-2.332-2.053 0-3.818.778-5.378 2.332-1.478 1.514-2.217 3.437-2.217 5.81v19.395h-6.733V53.787c0-4.296 1.355-7.815 4.023-10.515 2.71-2.741 6.158-4.092 10.305-4.092s7.554 1.35 10.305 4.092 4.105 6.26 4.105 10.515v19.395H57.09zm-33.09 0V24.818h7.143v48.363H24z" fill="#2c3a9b"></path>
</svg>
