<?xml version="1.0" encoding="UTF-8"?>
<svg xmlns="http://www.w3.org/2000/svg" xmlns:v="https://vecta.io/nano" width="276" height="88" fill="none">
  <path d="M0 16C0 7.163 7.163 0 16 0h243.273c8.836 0 16 7.163 16 16v56c0 8.837-7.164 16-16 16H16C7.163 88 0 80.837 0 72V16z" fill="#fff"></path>
  <g clip-path="url(#A)" fill="#000">
    <path d="M196.869 26.237v4.446h4.34c1.896 0 3.141 1.195 3.849 1.967l13.369 15.182c.301.372.301.376.301.613v7.024a4.97 4.97 0 0 1-.095.959 1.54 1.54 0 0 1-.963.855 9.82 9.82 0 0 1-1.236.078l-4.344-.005v4.446h24.372v-4.446h-4.586c-.409 0-.821-.024-1.228-.078a1.51 1.51 0 0 1-.959-.855 4.98 4.98 0 0 1-.099-.959v-7.02a.95.95 0 0 1 .163-.653l13.523-15.426c1.24-1.383 1.886-1.683 3.513-1.683h4.486v-4.448H231.19v4.436h3.033a.85.85 0 0 1 .899.798c.012.204-.049.405-.173.566-.064.09-8.409 9.905-8.513 10s-.173.073-.248-.031-8.324-9.967-8.324-9.967c-.583-.713-.128-1.364.554-1.364h2.954v-4.439h-24.5l-.003.002zm-59.777 0v4.446h3.89c2.81 0 2.999 1.565 2.999 2.929v20.805c0 1.245.071 2.955-1.719 2.955h-4.801v4.441h20.497v-4.441h-5c-1.995 0-2.085-.914-2.109-2.855V36.692L179 61.81h7.159l-.376-28.369c.035-2.074.163-2.763 2.308-2.763h4.486v-4.441h-20.909v4.441h4.593c2.109 0 2.462.814 2.49 2.763l.251 14.846-24.436-22.05h-17.472-.002zM44.796 24c-4.403 0-9.408.826-13.636 2.727-3.947 1.764-7.16 4.595-7.16 9.29a9.62 9.62 0 0 0 2.614 6.619c1.141 1.053 2.983 2.846 7.791 3.899 2.15.455 6.745 1.186 11.323 1.669s9.013.909 10.831 1.397c1.447.369 3.878.869 3.878 3.596s-2.559 3.544-3.004 3.722-3.518 1.586-9.037 1.586c-3.655-.102-7.28-.724-10.76-1.849-2.06-.736-4.219-1.704-6.231-4.164a7.14 7.14 0 0 1-1.295-3.944h-5.002v14.001h5.554v-1.896a.79.79 0 0 1 1.2-.682 43.7 43.7 0 0 0 8.127 2.628c2.919.608 4.806 1.051 8.433 1.051a35.96 35.96 0 0 0 11.3-1.596c2.429-.665 4.709-1.79 6.714-3.314 2.287-1.757 3.617-4.484 3.596-7.367.019-2.704-1.023-5.305-2.905-7.247a12.78 12.78 0 0 0-3.582-2.45c-1.425-.644-2.902-1.16-4.418-1.541-2.881-.706-9.354-1.586-12.45-1.896-3.246-.336-8.878-.805-11.127-1.501-.682-.213-2.074-.871-2.074-2.486 0-1.151.637-2.123 1.892-2.91 1.996-1.25 6.023-2.029 10.223-2.029 4.065-.05 8.096.739 11.846 2.313 1.006.438 1.953 1.004 2.817 1.683a8.47 8.47 0 0 1 2.777 4.645h4.486V25.769h-5v1.413c0 .455-.455 1.056-1.364.559-2.254-1.172-8.591-3.71-16.359-3.741zm60.172 0c-7.876 0-16.24 2.727-20.968 7.022a17.46 17.46 0 0 0-5.706 12.95c-.057 4.95 2.022 9.685 5.706 12.995 5.09 4.576 12.727 7.031 20.968 7.031s16.054-2.427 21.023-7.031c3.57-3.383 5.601-8.078 5.627-12.995.05-4.917-1.995-9.624-5.627-12.94C120.66 26.197 113.683 24 104.968 24zm0 5.199c4.309 0 8.459 1.551 11.255 4.299 2.704 2.663 4.117 6.428 4.117 10.454s-1.286 7.637-4.117 10.455-6.887 4.328-11.255 4.328-8.477-1.541-11.273-4.328c-2.701-2.801-4.174-6.565-4.091-10.455 0-4.008 1.394-7.786 4.091-10.454 2.796-2.763 6.965-4.299 11.273-4.299z"></path>
  </g>
  <defs>
    <clipPath id="A">
      <path fill="#fff" transform="translate(24 24)" d="M0 0h227.273v40H0z"></path>
    </clipPath>
  </defs>
</svg>
